HIERARCHY
ROOT Hips
{
	OFFSET 0.000000 8.830580 0.000000
	CHANNELS 6 Xposition Yposition Zposition Zrotation Yrotation Xrotation 
	JOINT Spine
	{
		OFFSET 0.000000 0.010000 0.000000
		CHANNELS 3 Zrotation Yrotation Xrotation
		JOINT Spine1
		{
			OFFSET 0.000000 2.459130 0.000000
			CHANNELS 3 Zrotation Yrotation Xrotation
			JOINT Neck
			{
				OFFSET 0.000000 2.484630 0.000000
				CHANNELS 3 Zrotation Yrotation Xrotation
				JOINT Head_virtual
				{
					OFFSET 0.000000 0.000000 0.000000
					CHANNELS 3 Zrotation Yrotation Xrotation
					JOINT Head
					{
						OFFSET 0.000000 0.927525 0.000000
						CHANNELS 3 Zrotation Yrotation Xrotation
						End Site
						{
							OFFSET 0.000000 0.000000 0.000000
						}
					}
				}
				JOINT LeftUpArm_virtual
				{
					OFFSET 0.000000 0.000000 0.000000
					CHANNELS 3 Zrotation Yrotation Xrotation
					JOINT LeftUpArm
					{
						OFFSET 1.248820 0.000000 0.000000
						CHANNELS 3 Zrotation Yrotation Xrotation
						JOINT LeftForeArm
						{
							OFFSET 2.597580 0.000000 0.000000
							CHANNELS 3 Zrotation Yrotation Xrotation
							JOINT LeftHand
							{
								OFFSET 2.455420 0.000000 0.000000
								CHANNELS 3 Zrotation Yrotation Xrotation
								End Site
								{
									OFFSET 0.000000 0.000000 0.000000
								}
							}
						}
					}
				}
				JOINT RightUpArm_virtual
				{
					OFFSET -0.000000 -0.000000 -0.000000
					CHANNELS 3 Zrotation Yrotation Xrotation
					JOINT RightUpArm
					{
						OFFSET -1.248820 -0.000000 -0.000000
						CHANNELS 3 Zrotation Yrotation Xrotation
						JOINT RightForeArm
						{
							OFFSET -2.597580 -0.000000 -0.000000
							CHANNELS 3 Zrotation Yrotation Xrotation
							JOINT RightHand
							{
								OFFSET -2.455420 -0.000000 -0.000000
								CHANNELS 3 Zrotation Yrotation Xrotation
								End Site
								{
									OFFSET 0.000000 0.000000 0.000000
								}
							}
						}
					}
				}
			}
		}
	}
	JOINT LeftUpLeg
	{
		OFFSET 1.271939 0.000000 0.000000
		CHANNELS 3 Zrotation Yrotation Xrotation
		JOINT LeftLowLeg
		{
			OFFSET 0.000000 -4.342910 0.000000
			CHANNELS 3 Zrotation Yrotation Xrotation
			JOINT LeftFoot
			{
				OFFSET 0.000000 -4.487670 0.000000
				CHANNELS 3 Zrotation Yrotation Xrotation
				JOINT LeftToeBase
				{
					OFFSET 0.000000 0.000000 1.515070
					CHANNELS 3 Zrotation Yrotation Xrotation
					End Site
					{
						OFFSET 0.000000 0.000000 0.000000
					}
				}
			}
		}
	}
	JOINT RightUpLeg
	{
		OFFSET -1.271939 0.000000 0.000000
		CHANNELS 3 Zrotation Yrotation Xrotation
		JOINT RightLowLeg
		{
			OFFSET 0.000000 -4.342910 0.000000
			CHANNELS 3 Zrotation Yrotation Xrotation
			JOINT RightFoot
			{
				OFFSET 0.000000 -4.487670 0.000000
				CHANNELS 3 Zrotation Yrotation Xrotation
				JOINT RightToeBase
				{
					OFFSET 0.000000 0.000000 1.515070
					CHANNELS 3 Zrotation Yrotation Xrotation
					End Site
					{
						OFFSET 0.000000 0.000000 0.000000
					}
				}
			}
		}
	}
}
MOTION
Frames: 10
Frame Time: 0.041667
-18.241622 9.217469 42.331150 -176.221765 -0.793288 -174.565719 2.505893 -2.146717 -7.573496 0.392722 -2.442594 3.699926 0.000000 0.000000 0.000000 -3.099289 2.298125 -11.079591 5.602523 6.861183 -55.661925 -1.832660 13.609600 -4.577710 -10.944500 -0.283807 -30.447201 0.000000 -20.851500 0.000000 26.858700 7.110490 25.085501 9.168360 -9.936960 -0.449773 7.317240 -0.284512 -33.272499 0.000000 19.455200 0.000000 -16.265499 -1.280740 24.446301 4.277920 1.191670 -5.102546 0.000000 0.000000 7.478260 8.523691 -1.760614 7.081700 0.000000 0.000000 -36.650000 0.106427 6.572930 -2.966124 0.000000 0.000000 6.942650 8.856447 -6.321706 9.101036 0.000000 0.000000 -28.032700 
-18.241594 9.217379 42.330480 -176.219647 -0.788729 -174.550053 2.500163 -2.141221 -7.610055 0.413656 -2.435550 3.703090 0.000000 0.000000 0.000000 -3.104390 2.294099 -11.021100 5.628513 6.842929 -55.616899 -1.878090 13.590200 -4.570610 -10.902400 -0.285977 -30.401600 0.000000 -20.856701 0.000000 26.877100 7.225290 25.064100 9.163370 -9.932690 -0.449977 7.323940 -0.275331 -33.295399 0.000000 19.494499 0.000000 -16.101700 -1.292370 24.371000 4.279254 1.224493 -5.100978 0.000000 0.000000 7.453570 8.536373 -1.783520 7.078637 0.000000 0.000000 -36.651300 0.105788 6.598904 -2.981510 0.000000 0.000000 6.948390 8.875692 -6.333336 9.091794 0.000000 0.000000 -28.053600 
-18.241419 9.217383 42.329836 -176.216349 -0.791045 -174.541597 2.454744 -2.178253 -7.666573 0.513566 -2.462134 3.774650 0.000000 0.000000 0.000000 -3.188216 2.333186 -11.017612 5.632035 6.828623 -55.577695 -1.943930 13.631900 -4.588530 -10.901100 -0.272469 -30.361000 0.000000 -20.861500 0.000000 26.866100 7.215980 25.077999 9.120260 -9.874400 -0.465846 7.344210 -0.247720 -33.346001 0.000000 19.517401 0.000000 -16.142300 -1.278070 24.354799 4.282623 1.249212 -5.102116 0.000000 0.000000 7.446380 8.540627 -1.805430 7.071638 0.000000 0.000000 -36.663700 0.109298 6.618546 -2.986985 0.000000 0.000000 6.951590 8.884755 -6.346958 9.087216 0.000000 0.000000 -28.051600 
-18.241251 9.217373 42.329381 -176.216280 -0.790982 -174.544635 2.441111 -2.176284 -7.669715 0.531516 -2.457112 3.768520 0.000000 0.000000 0.000000 -3.173751 2.336553 -10.973628 5.607238 6.843072 -55.537799 -1.945620 13.627400 -4.568240 -10.917700 -0.276607 -30.313900 0.000000 -20.856501 0.000000 26.866400 7.188040 25.062599 9.114820 -9.871820 -0.492379 7.375350 -0.239438 -33.352699 0.000000 19.535900 0.000000 -16.166201 -1.257470 24.412901 4.283763 1.252560 -5.096291 0.000000 0.000000 7.445730 8.540144 -1.806113 7.072221 0.000000 0.000000 -36.672600 0.111431 6.613453 -2.976917 0.000000 0.000000 6.943340 8.883729 -6.344675 9.087296 0.000000 0.000000 -28.047400 
-18.240854 9.217223 42.328514 -176.212022 -0.804974 -174.552074 2.421751 -2.179738 -7.668822 0.557973 -2.456181 3.751772 0.000000 0.000000 0.000000 -3.166115 2.350487 -10.909503 5.612468 6.851170 -55.447728 -1.943460 13.643400 -4.549040 -10.966500 -0.307582 -30.309601 0.000000 -20.840700 0.000000 26.718100 7.212700 24.980400 9.105380 -9.885660 -0.471422 7.431260 -0.172533 -33.397999 0.000000 19.536600 0.000000 -16.211399 -1.358770 24.579700 4.296778 1.155993 -5.096540 0.000000 0.000000 7.468860 8.451428 -1.780786 7.054364 0.000000 0.000000 -36.604900 0.121619 6.613881 -2.955194 0.000000 0.000000 6.931670 8.876311 -6.358643 9.084988 0.000000 0.000000 -28.039300 
-18.240390 9.217071 42.328009 -176.209879 -0.823982 -174.554961 2.412341 -2.184381 -7.665864 0.559691 -2.458793 3.745774 0.000000 0.000000 0.000000 -3.173904 2.366930 -10.885906 5.634367 6.855779 -55.417864 -1.925440 13.646700 -4.555320 -11.000800 -0.307105 -30.269199 0.000000 -20.833099 0.000000 26.687700 7.279470 25.054899 9.109670 -9.884550 -0.459777 7.452540 -0.143274 -33.358700 0.000000 19.509800 0.000000 -16.205799 -1.394390 24.640699 4.307128 1.092533 -5.103240 0.000000 0.000000 7.484850 8.504121 -1.713062 7.054169 0.000000 0.000000 -36.632200 0.129326 6.585965 -2.947125 0.000000 0.000000 6.934540 8.861556 -6.351840 9.076927 0.000000 0.000000 -28.038500 
-18.239968 9.216888 42.327542 -176.211278 -0.849709 -174.564082 2.399560 -2.193179 -7.668321 0.561611 -2.464971 3.766410 0.000000 0.000000 0.000000 -3.181032 2.371078 -10.891137 5.645701 6.849236 -55.392295 -1.932500 13.638000 -4.546920 -10.989800 -0.309639 -30.198799 0.000000 -20.748501 0.000000 26.749701 7.192180 25.074301 9.122340 -9.863330 -0.437587 7.468430 -0.148180 -33.358501 0.000000 19.497700 0.000000 -16.235201 -1.335120 24.651100 4.311301 1.058397 -5.104553 0.000000 0.000000 7.500480 8.504023 -1.702703 7.042856 0.000000 0.000000 -36.632401 0.133843 6.596722 -2.931586 0.000000 0.000000 6.937310 8.879954 -6.374890 9.058156 0.000000 0.000000 -28.018300 
-18.239650 9.216756 42.327412 -176.207141 -0.877637 -174.574814 2.396985 -2.188436 -7.661721 0.557153 -2.459935 3.786404 0.000000 0.000000 0.000000 -3.170090 2.356147 -10.890594 5.640070 6.841763 -55.398352 -1.951430 13.601600 -4.549010 -10.988200 -0.291611 -30.245701 0.000000 -20.742100 0.000000 26.799801 7.186220 25.080500 9.138800 -9.851730 -0.434739 7.506350 -0.173726 -33.451801 0.000000 19.535000 0.000000 -16.120899 -1.357990 24.455000 4.319238 1.020504 -5.106622 0.000000 0.000000 7.516810 8.450416 -1.720151 7.029184 0.000000 0.000000 -36.614901 0.142814 6.593572 -2.925386 0.000000 0.000000 6.956460 8.897622 -6.386930 9.041977 0.000000 0.000000 -28.021900 
-18.239331 9.216605 42.327272 -176.206255 -0.902228 -174.593988 2.391334 -2.190297 -7.642917 0.548641 -2.460918 3.809138 0.000000 0.000000 0.000000 -3.181623 2.354419 -10.908728 5.647160 6.831243 -55.404805 -1.971390 13.587400 -4.524610 -10.984400 -0.269036 -30.294100 0.000000 -20.778099 0.000000 26.804501 7.246220 25.085699 9.159540 -9.857790 -0.440390 7.534330 -0.155359 -33.570801 0.000000 19.529400 0.000000 -16.094101 -1.300380 24.509100 4.323146 1.017472 -5.102897 0.000000 0.000000 7.537520 8.502325 -1.710085 7.024274 0.000000 0.000000 -36.640499 0.150239 6.590601 -2.903927 0.000000 0.000000 6.963630 8.904633 -6.403127 9.029373 0.000000 0.000000 -28.016700 
-18.238670 9.216419 42.326605 -176.208917 -0.928003 -174.598599 2.374003 -2.191469 -7.646306 0.551775 -2.458661 3.844555 0.000000 0.000000 0.000000 -3.134879 2.312342 -11.002383 5.596438 6.806578 -55.299267 -1.971040 13.574900 -4.509260 -10.993200 -0.232977 -30.171900 0.000000 -20.791300 0.000000 26.812599 7.222630 25.045700 9.178850 -9.871790 -0.453678 7.533270 -0.138679 -33.531101 0.000000 19.514099 0.000000 -16.123800 -1.343400 24.447399 4.329766 0.994265 -5.099020 0.000000 0.000000 7.534280 8.476756 -1.726272 7.016581 0.000000 0.000000 -36.621500 0.156179 6.592246 -2.887105 0.000000 0.000000 6.957330 8.902669 -6.427344 9.017426 0.000000 0.000000 -28.015700 
